<?xml version="1.0" encoding="UTF-8" standalone="no"?><!DOCTYPE svg PUBLIC "-//W3C//DTD SVG 1.1//EN" "http://www.w3.org/Graphics/SVG/1.1/DTD/svg11.dtd"><svg width="100%" height="100%" viewBox="0 0 47 47" version="1.1" xmlns="http://www.w3.org/2000/svg" xmlns:xlink="http://www.w3.org/1999/xlink" xml:space="preserve" xmlns:serif="http://www.serif.com/" style="fill-rule:evenodd;clip-rule:evenodd;stroke-linejoin:round;stroke-miterlimit:2;"><rect id="Artboard5" x="0" y="0" width="46.686" height="46.686" style="fill:none;"/><clipPath id="_clip1"><rect x="0" y="0" width="46.686" height="46.686"/></clipPath><g clip-path="url(#_clip1)"><path d="M36.855,24.381c-0.215,0.233 -0.011,0.605 0.3,0.55l2.703,-0.475l0.246,1.016l-4.879,1.351c-0.465,0.081 -0.941,-0.059 -1.288,-0.378l-5.248,-4.834c-0.55,-0.506 -1.407,-0.468 -1.909,0.085l-1.675,1.845c-0.438,0.482 -0.669,1.117 -0.641,1.767l0.188,4.588c0.037,0.895 0.792,1.59 1.687,1.553l10.872,-0.446l-0.001,-0.023l0.462,-0.019c0.605,-0.025 1.186,0.234 1.573,0.699l3.682,4.428c-0.235,0.363 -0.481,0.719 -0.739,1.071l-2.68,-2.959c-0.253,-0.304 -0.747,-0.114 -0.731,0.281l0.253,6.183c-0.447,0.408 -0.906,0.793 -1.376,1.159l-0.323,-7.888c-0.034,-0.834 -0.738,-1.483 -1.572,-1.448l-1.875,0.077c-0.541,0.022 -0.962,0.479 -0.94,1.02l-0.36,3.376l-0.924,0.038l-0.138,-3.355c-0.022,-0.541 -0.479,-0.962 -1.02,-0.94l-4.379,0.18c-0.743,0.03 -1.32,0.657 -1.29,1.399l0.158,3.854l6.06,7.29c-0.398,0.139 -0.799,0.267 -1.202,0.384l-3.755,-4.122c-0.326,-0.392 -0.964,-0.147 -0.942,0.363l0.188,4.599c-0.473,0.041 -0.947,0.068 -1.42,0.079l-0.637,-15.528c-0.027,-0.665 -0.589,-1.182 -1.254,-1.155l-5.159,0.212c-0.273,0.011 -0.416,0.332 -0.241,0.542l4.295,5.167l-1.093,0.91l-3.693,-4.442c-0.202,-0.243 -0.597,-0.091 -0.584,0.225l0.075,12.78c-0.332,-0.115 -0.662,-0.238 -0.99,-0.369l-0.141,-3.427c-0.027,-0.633 -0.56,-1.124 -1.193,-1.099l-5.581,0.229c-0.335,-0.3 -0.662,-0.612 -0.982,-0.935l6.14,-0.701c0.834,-0.034 1.483,-0.738 1.449,-1.572l-0.218,-5.296c-0.013,-0.317 -0.419,-0.436 -0.601,-0.177l-1.608,2.293l-1.165,-0.816l2.808,-4.004c0.271,-0.387 0.707,-0.625 1.18,-0.645l7.103,-0.292c0.743,-0.03 1.32,-0.657 1.29,-1.4l-0.088,-2.138c-0.027,-0.657 -0.314,-1.276 -0.797,-1.721l-3.487,-3.212c-0.658,-0.607 -1.685,-0.565 -2.291,0.094l-7.699,8.357c-0.41,0.445 -1.004,0.674 -1.607,0.618l-6.606,-0.608c-0.111,-0.482 -0.207,-0.968 -0.286,-1.455l4.941,0.455c0.394,0.036 0.609,-0.448 0.318,-0.716l-5.517,-5.081c0.014,-0.217 0.032,-0.434 0.052,-0.65l0.081,-0.651l6.793,5.747c0.614,0.566 1.57,0.526 2.136,-0.088l1.272,-1.381c0.367,-0.398 0.342,-1.019 -0.057,-1.387l-1.973,-2.295l0.755,-0.761l2.182,2.01c0.398,0.368 1.019,0.342 1.386,-0.057l2.984,-3.239c0.495,-0.539 0.461,-1.377 -0.078,-1.873l-2.851,-2.627l-10.436,-0.961l0.09,-0.546c0.06,-0.124 0.123,-0.249 0.187,-0.371l6.867,0.146c0.508,0.047 0.785,-0.577 0.41,-0.923l-4.162,-3.835c0.309,-0.356 0.63,-0.704 0.964,-1.046l12.191,11.23c0.49,0.451 1.252,0.42 1.703,-0.07l3.498,-3.798c0.185,-0.202 0.06,-0.528 -0.213,-0.554l-6.692,-0.617l0.151,-0.919l5.731,0.033c0.315,0.029 0.487,-0.358 0.254,-0.573l-9.857,-9.556c0.354,-0.166 0.711,-0.323 1.071,-0.47l3.18,2.929c0.465,0.429 1.191,0.399 1.62,-0.067l4.244,-4.607c0.466,0.003 0.933,0.02 1.398,0.052l0.483,0.035l-4.831,5.216c-0.565,0.614 -0.526,1.57 0.088,2.135l3.898,3.591c0.233,0.215 0.605,0.011 0.55,-0.3l-0.485,-2.759l0.904,-0.226l1.342,4.795c0.082,0.466 -0.058,0.943 -0.378,1.29l-5.066,5.5c-0.366,0.397 -0.34,1.015 0.057,1.381l0.502,0.462c1.006,0.927 2.574,0.863 3.501,-0.144l7.808,-8.476l0.911,-9.89c0.32,0.167 0.637,0.343 0.95,0.526l-0.13,6.072c-0.047,0.508 0.578,0.785 0.923,0.41l3.228,-3.505c0.347,0.32 0.686,0.651 1.018,0.995l-10.684,11.598c-0.451,0.489 -0.419,1.251 0.07,1.702l3.824,3.522c0.202,0.185 0.528,0.06 0.554,-0.213l0.616,-6.691l0.052,0.004l0.011,-0.124l0.92,0.151l-0.033,5.731c-0.029,0.315 0.358,0.488 0.572,0.255l8.721,-8.997c0.167,0.387 0.324,0.778 0.468,1.172l-2.066,2.243c-0.429,0.466 -0.399,1.191 0.067,1.62l3.415,3.146c0.027,0.582 0.032,1.166 0.015,1.75l-4.214,-3.507c-0.614,-0.565 -1.57,-0.526 -2.135,0.088l-3.472,3.769Z" style="fill:#4f5951;fill-rule:nonzero;"/></g></svg>